<?xml version="1.0" encoding="UTF-8" standalone="no"?>
<svg
   viewBox="0 0 210 297"
   width="210mm"
   height="297mm"
   version="1.1"
   id="svg48"
   sodipodi:docname="Inkscape.svg"
   xml:space="preserve"
   inkscape:version="1.4.2 (ebf0e940, 2025-05-08)"
   xmlns:inkscape="http://www.inkscape.org/namespaces/inkscape"
   xmlns:sodipodi="http://sodipodi.sourceforge.net/DTD/sodipodi-0.dtd"
   xmlns="http://www.w3.org/2000/svg"
   xmlns:svg="http://www.w3.org/2000/svg"><sodipodi:namedview
     id="namedview48"
     pagecolor="#ffffff"
     bordercolor="#000000"
     borderopacity="0.25"
     inkscape:showpageshadow="2"
     inkscape:pageopacity="0.0"
     inkscape:pagecheckerboard="0"
     inkscape:deskcolor="#d1d1d1"
     inkscape:zoom="1.6362965"
     inkscape:cx="398.46078"
     inkscape:cy="559.18959"
     inkscape:window-width="2560"
     inkscape:window-height="1027"
     inkscape:window-x="0"
     inkscape:window-y="25"
     inkscape:window-maximized="0"
     inkscape:current-layer="g48"
     inkscape:document-units="mm" /><desc
     id="desc1">LHS Outline.dxf - scale = 1.000000, origin = (0.000000, 0.000000), method = manual</desc><defs
     id="defs4"><inkscape:path-effect
       effect="fill_between_many"
       method="originald"
       linkedpaths="#path86,0,1|"
       id="path-effect90" /><marker
       id="DistanceX"
       orient="auto"
       refX="0"
       refY="0"
       style="overflow:visible"><path
         d="M 3,-3 -3,3 M 0,-5 V 5"
         style="stroke:#000000;stroke-width:0.5"
         id="path1" /></marker><pattern
       id="Hatch"
       patternUnits="userSpaceOnUse"
       width="8"
       height="8"
       x="0"
       y="0"><path
         d="M8 4 l-4,4"
         stroke="#000000"
         stroke-width="0.25"
         linecap="square"
         id="path2" /><path
         d="M6 2 l-4,4"
         stroke="#000000"
         stroke-width="0.25"
         linecap="square"
         id="path3" /><path
         d="M4 0 l-4,4"
         stroke="#000000"
         stroke-width="0.25"
         linecap="square"
         id="path4" /></pattern><marker
       id="DistanceX-5"
       orient="auto"
       refX="0"
       refY="0"
       style="overflow:visible"><path
         d="M 3,-3 -3,3 M 0,-5 V 5"
         style="stroke:#000000;stroke-width:0.5"
         id="path1-4" /></marker><pattern
       id="Hatch-1"
       patternUnits="userSpaceOnUse"
       width="8"
       height="8"
       x="0"
       y="0"><path
         d="M8 4 l-4,4"
         stroke="#000000"
         stroke-width="0.25"
         linecap="square"
         id="path2-8" /><path
         d="M6 2 l-4,4"
         stroke="#000000"
         stroke-width="0.25"
         linecap="square"
         id="path3-8" /><path
         d="M4 0 l-4,4"
         stroke="#000000"
         stroke-width="0.25"
         linecap="square"
         id="path4-3" /></pattern><inkscape:path-effect
       effect="fill_between_many"
       method="originald"
       linkedpaths="#path48-1,0,1"
       id="path-effect53"
       is_visible="true"
       lpeversion="0"
       join="true"
       close="true"
       autoreverse="true" /><marker
       id="DistanceX-7"
       orient="auto"
       refX="0.0"
       refY="0.0"
       style="overflow:visible"><path
         d="M 3,-3 L -3,3 M 0,-5 L  0,5"
         style="stroke:#000000; stroke-width:0.5"
         id="path1-5" /></marker><pattern
       id="Hatch-3"
       patternUnits="userSpaceOnUse"
       width="8"
       height="8"
       x="0"
       y="0"><path
         d="M8 4 l-4,4"
         stroke="#000000"
         stroke-width="0.25"
         linecap="square"
         id="path2-9" /><path
         d="M6 2 l-4,4"
         stroke="#000000"
         stroke-width="0.25"
         linecap="square"
         id="path3-0" /><path
         d="M4 0 l-4,4"
         stroke="#000000"
         stroke-width="0.25"
         linecap="square"
         id="path4-5" /></pattern><inkscape:path-effect
       effect="fill_between_many"
       method="originald"
       linkedpaths="#g82,0,1|"
       id="path-effect82" /><inkscape:path-effect
       effect="fill_between_many"
       method="originald"
       linkedpaths="#path76-6,0,1|"
       id="path-effect83" /><marker
       id="DistanceX-71"
       orient="auto"
       refX="0.0"
       refY="0.0"
       style="overflow:visible"><path
         d="M 3,-3 L -3,3 M 0,-5 L  0,5"
         style="stroke:#000000; stroke-width:0.5"
         id="path1-8" /></marker><pattern
       id="Hatch-9"
       patternUnits="userSpaceOnUse"
       width="8"
       height="8"
       x="0"
       y="0"><path
         d="M8 4 l-4,4"
         stroke="#000000"
         stroke-width="0.25"
         linecap="square"
         id="path2-3" /><path
         d="M6 2 l-4,4"
         stroke="#000000"
         stroke-width="0.25"
         linecap="square"
         id="path3-7" /><path
         d="M4 0 l-4,4"
         stroke="#000000"
         stroke-width="0.25"
         linecap="square"
         id="path4-4" /></pattern><marker
       id="DistanceX-6"
       orient="auto"
       refX="0.0"
       refY="0.0"
       style="overflow:visible"><path
         d="M 3,-3 L -3,3 M 0,-5 L  0,5"
         style="stroke:#000000; stroke-width:0.5"
         id="path1-40" /></marker><pattern
       id="Hatch-8"
       patternUnits="userSpaceOnUse"
       width="8"
       height="8"
       x="0"
       y="0"><path
         d="M8 4 l-4,4"
         stroke="#000000"
         stroke-width="0.25"
         linecap="square"
         id="path2-2" /><path
         d="M6 2 l-4,4"
         stroke="#000000"
         stroke-width="0.25"
         linecap="square"
         id="path3-06" /><path
         d="M4 0 l-4,4"
         stroke="#000000"
         stroke-width="0.25"
         linecap="square"
         id="path4-0" /></pattern><inkscape:path-effect
       effect="fill_between_many"
       method="originald"
       linkedpaths="#path44-6-6,0,1|"
       id="path-effect84" /><marker
       id="DistanceX-56"
       orient="auto"
       refX="0.0"
       refY="0.0"
       style="overflow:visible"><path
         d="M 3,-3 L -3,3 M 0,-5 L  0,5"
         style="stroke:#000000; stroke-width:0.5"
         id="path1-1" /></marker><pattern
       id="Hatch-5"
       patternUnits="userSpaceOnUse"
       width="8"
       height="8"
       x="0"
       y="0"><path
         d="M8 4 l-4,4"
         stroke="#000000"
         stroke-width="0.25"
         linecap="square"
         id="path2-91" /><path
         d="M6 2 l-4,4"
         stroke="#000000"
         stroke-width="0.25"
         linecap="square"
         id="path3-3" /><path
         d="M4 0 l-4,4"
         stroke="#000000"
         stroke-width="0.25"
         linecap="square"
         id="path4-8" /></pattern><marker
       id="DistanceX-8"
       orient="auto"
       refX="0.0"
       refY="0.0"
       style="overflow:visible"><path
         d="M 3,-3 L -3,3 M 0,-5 L  0,5"
         style="stroke:#000000; stroke-width:0.5"
         id="path1-7" /></marker><pattern
       id="Hatch-0"
       patternUnits="userSpaceOnUse"
       width="8"
       height="8"
       x="0"
       y="0"><path
         d="M8 4 l-4,4"
         stroke="#000000"
         stroke-width="0.25"
         linecap="square"
         id="path2-36" /><path
         d="M6 2 l-4,4"
         stroke="#000000"
         stroke-width="0.25"
         linecap="square"
         id="path3-9" /><path
         d="M4 0 l-4,4"
         stroke="#000000"
         stroke-width="0.25"
         linecap="square"
         id="path4-1" /></pattern><inkscape:path-effect
       effect="fill_between_many"
       method="originald"
       linkedpaths="#path86,0,1|"
       id="path-effect88" /></defs><g
     inkscape:groupmode="layer"
     inkscape:label="0"
     id="g48"><path
       id="path90"
       style="fill:#0000ff;stroke:#000000;stroke-width:0.264583"
       d="m 94.458984,94.748047 c -5.625121,0.74142 -11.306418,1.190693 -16.86914,2.3125 -2.425028,1.150686 -3.465959,3.835163 -4.181323,6.246783 -0.46478,1.31735 -1.98886,1.67508 -3.222965,1.79631 -5.089063,1.16205 -10.273653,1.96637 -15.255868,3.54675 -2.445894,1.27025 -3.356788,4.2459 -3.187062,6.84017 -0.111406,1.51817 0.288296,3.22032 -0.646923,4.55436 -1.898675,1.36121 -4.362901,1.31601 -6.467504,2.19791 -3.282203,0.99962 -6.742607,1.70064 -9.844996,3.26498 -2.427748,1.87142 -2.848813,5.50218 -1.554687,8.15625 4.821689,15.72526 9.498649,31.49805 14.523437,47.15625 1.565408,2.87634 5.532458,3.79854 8.390625,2.40625 4.203708,-1.29375 8.54549,-2.22187 12.601563,-3.93945 2.186464,-1.66484 2.616477,-4.54436 3.267582,-7.03174 0.507954,-1.46678 0.376176,-3.34996 1.721911,-4.37288 2.136623,-0.95081 4.553174,-0.67569 6.785696,-1.24931 6.799999,-1.00586 13.565923,-2.10433 20.39083,-2.89099 1.42265,0.3758 1.81421,1.98904 2.04702,3.24645 1.52029,4.98761 2.68594,10.10162 4.6229,14.94886 1.48763,2.16845 4.29724,2.76994 6.77148,2.75977 7.00227,0.62375 14.09388,1.49858 20.66295,4.22077 8.99122,3.43224 17.16763,8.59337 25.84291,12.69719 2.7258,1.03128 5.84853,-0.57026 7.18208,-3.03255 0.85827,-1.59766 1.59979,-3.25566 2.51582,-4.82443 1.50276,-2.80583 3.1248,-5.59226 4.10484,-8.6313 0.24783,-2.6127 -1.50429,-4.85397 -3.3125,-6.52734 -1.74105,-2.0836 -4.08524,-3.72686 -5.31867,-6.19018 -0.43311,-2.49199 -0.20902,-5.17344 -0.50307,-7.74247 -1.11512,-20.85257 -2.12341,-41.71543 -3.41459,-62.55563 -0.80746,-3.219572 -4.51396,-5.106312 -7.65625,-4.378908 -16.47302,0.857537 -32.94528,1.730826 -49.42188,2.517578 -2.0407,-0.659188 -3.4504,-2.402132 -5.259023,-3.471687 -1.517378,-1.163475 -3.33451,-2.190071 -5.315193,-2.030266 z" /><path
       inkscape:original-d="M 0,0"
       inkscape:path-effect="#path-effect88"
       d="m 169.05679,232.60113 6.57997,6.97712 c 1.17711,1.24806 1.4273,3.10774 0.62195,4.62235 l -6.07022,11.4165 c -1.0371,1.95041 -3.45909,2.6909 -5.40968,1.65378 l -14.9257,-7.92567 c -2.7007,-1.53834 -11.05945,-5.12868 -15.707,-6.44901 -6.06883,-1.81901 -18.11395,-2.60945 -18.11395,-2.60945 -1.56108,-0.21995 -2.84769,-1.33572 -3.2858,-2.84951 l -4.36409,-15.08554 c -0.55699,-1.9246 -2.45263,-3.14044 -4.43464,-2.84427 l -25.726262,3.85173 c -1.59013,0.23791 -2.883167,1.40488 -3.28245,2.96288 l -1.753378,6.83747 c -0.352621,1.37517 -1.407583,2.46036 -2.772204,2.85189 l -12.278608,3.52123 c -2.098953,0.60124 -4.292717,-0.59131 -4.928939,-2.67986 L 38.692158,189.20645 c -0.651201,-2.1376 0.575611,-4.39439 2.723872,-5.01092 l 13.392682,-3.83968 c 1.663557,-0.47707 2.831676,-1.96975 2.894795,-3.69901 l 0.187619,-5.14011 c 0.06696,-1.83227 1.371767,-3.38479 3.165716,-3.76585 l 15.252361,-3.24156 c 1.332936,-0.28401 2.429962,-1.22648 2.910956,-2.50193 l 1.160447,-3.07546 c 0.524886,-1.3924 1.778725,-2.37792 3.255018,-2.55853 l 14.897356,-1.83004 c 1.002578,-0.12287 2.01455,0.13785 2.83281,0.73004 l 5.62217,4.06924 c 0.74037,0.53581 1.64191,0.80198 2.55457,0.75411 l 50.61819,-2.65326 c 2.2061,-0.11512 4.08824,1.57956 4.20392,3.78568 l 3.60745,68.83672 c 0.0497,0.94697 0.43408,1.84545 1.0847,2.53524 z"
       id="path88"
       style="fill:#ff0000"
       transform="translate(-4.0549134,-57.795592)" /><path
       id="path86"
       style="fill:none;stroke:#000000;stroke-width:0.264583"
       d="m 169.05679,232.60113 6.57997,6.97712 c 1.17711,1.24806 1.4273,3.10774 0.62195,4.62235 l -6.07022,11.4165 c -1.0371,1.95041 -3.45909,2.6909 -5.40968,1.65378 l -14.9257,-7.92567 c -2.7007,-1.53834 -11.05945,-5.12868 -15.707,-6.44901 -6.06883,-1.81901 -18.11395,-2.60945 -18.11395,-2.60945 -1.56108,-0.21995 -2.84769,-1.33572 -3.2858,-2.84951 l -4.36409,-15.08554 c -0.55699,-1.9246 -2.45263,-3.14044 -4.43464,-2.84427 l -25.726262,3.85173 c -1.59013,0.23791 -2.883167,1.40488 -3.28245,2.96288 l -1.753378,6.83747 c -0.352621,1.37517 -1.407583,2.46036 -2.772204,2.85189 l -12.278608,3.52123 c -2.098953,0.60124 -4.292717,-0.59131 -4.928939,-2.67986 L 38.692158,189.20645 c -0.651201,-2.1376 0.575611,-4.39439 2.723872,-5.01092 l 13.392682,-3.83968 c 1.663557,-0.47707 2.831676,-1.96975 2.894795,-3.69901 l 0.187619,-5.14011 c 0.06696,-1.83227 1.371767,-3.38479 3.165716,-3.76585 l 15.252361,-3.24156 c 1.332936,-0.28401 2.429962,-1.22648 2.910956,-2.50193 l 1.160447,-3.07546 c 0.524886,-1.3924 1.778725,-2.37792 3.255018,-2.55853 l 14.897356,-1.83004 c 1.002578,-0.12287 2.01455,0.13785 2.83281,0.73004 l 5.62217,4.06924 c 0.74037,0.53581 1.64191,0.80198 2.55457,0.75411 l 50.61819,-2.65326 c 2.2061,-0.11512 4.08824,1.57956 4.20392,3.78568 l 3.60745,68.83672 c 0.0497,0.94697 0.43408,1.84545 1.0847,2.53524 z"
       sodipodi:nodetypes="ccccccccccccccccccccccccccccccccccc"
       transform="translate(-4.0549134,-57.795592)" /><g
       id="g85"
       transform="translate(-168.09994,-58.340809)"><g
         inkscape:label="0"
         id="g76"
         transform="matrix(0.26458333,0,0,0.26458333,145.01388,-258.3841)"><path
           style="fill:none;stroke:#000000"
           d="m 284.223,1873.35 50.863,-14.58"
           id="path5-89" /><path
           style="fill:none;stroke:#000000"
           d="m 335.086,1858.77 -14.584,-50.86"
           id="path6-4" /><path
           style="fill:none;stroke:#000000"
           d="m 320.502,1807.91 -50.864,14.58"
           id="path7-3" /><path
           style="fill:none;stroke:#000000"
           d="m 269.638,1822.49 14.585,50.86"
           id="path8-9" /><path
           style="fill:none;stroke:#000000"
           d="m 264.429,1804.32 50.864,-14.58"
           id="path9-51" /><path
           style="fill:none;stroke:#000000"
           d="m 315.293,1789.74 -14.585,-50.86"
           id="path10-74" /><path
           style="fill:none;stroke:#000000"
           d="m 300.708,1738.88 -50.864,14.58"
           id="path11-5" /><path
           style="fill:none;stroke:#000000"
           d="m 249.844,1753.46 14.585,50.86"
           id="path12-1" /><path
           style="fill:none;stroke:#000000"
           d="m 244.635,1735.3 50.864,-14.59"
           id="path13-4" /><path
           style="fill:none;stroke:#000000"
           d="m 295.499,1720.71 -14.585,-50.86"
           id="path14-60" /><path
           style="fill:none;stroke:#000000"
           d="m 280.914,1669.85 -50.864,14.58"
           id="path15-3" /><path
           style="fill:none;stroke:#000000"
           d="m 230.05,1684.43 14.585,50.87"
           id="path16-2" /><path
           style="fill:none;stroke:#000000"
           d="m 347.862,1813.8 51.757,-11"
           id="path17-2" /><path
           style="fill:none;stroke:#000000"
           d="m 399.619,1802.8 -11.001,-51.76"
           id="path18-1" /><path
           style="fill:none;stroke:#000000"
           d="m 388.618,1751.04 -51.757,11"
           id="path19-4" /><path
           style="fill:none;stroke:#000000"
           d="m 336.861,1762.04 11.001,51.76"
           id="path20-77" /><path
           style="fill:none;stroke:#000000"
           d="m 332.932,1743.56 51.757,-11"
           id="path21-0" /><path
           style="fill:none;stroke:#000000"
           d="M 384.689,1732.56 373.687,1680.8"
           id="path22-9" /><path
           style="fill:none;stroke:#000000"
           d="m 373.687,1680.8 -51.757,11"
           id="path23-5" /><path
           style="fill:none;stroke:#000000"
           d="m 321.93,1691.8 11.002,51.76"
           id="path24-7" /><path
           style="fill:none;stroke:#000000"
           d="m 318.001,1673.32 51.757,-11"
           id="path25-2" /><path
           style="fill:none;stroke:#000000"
           d="m 369.758,1662.32 -11.001,-51.76"
           id="path26-9" /><path
           style="fill:none;stroke:#000000"
           d="m 358.757,1610.56 -51.757,11"
           id="path27-76" /><path
           style="fill:none;stroke:#000000"
           d="m 307,1621.56 11.001,51.76"
           id="path28-8" /><path
           style="fill:none;stroke:#000000"
           d="m 414.428,1774.01 52.519,-6.45"
           id="path29-2" /><path
           style="fill:none;stroke:#000000"
           d="m 466.947,1767.56 -6.448,-52.52"
           id="path30-9" /><path
           style="fill:none;stroke:#000000"
           d="m 460.499,1715.04 -52.519,6.45"
           id="path31-9" /><path
           style="fill:none;stroke:#000000"
           d="m 407.98,1721.49 6.448,52.52"
           id="path32-8" /><path
           style="fill:none;stroke:#000000"
           d="m 405.677,1702.73 52.519,-6.45"
           id="path33-3" /><path
           style="fill:none;stroke:#000000"
           d="m 458.196,1696.28 -6.449,-52.52"
           id="path34-7" /><path
           style="fill:none;stroke:#000000"
           d="m 451.747,1643.76 -52.519,6.45"
           id="path35-1" /><path
           style="fill:none;stroke:#000000"
           d="m 399.228,1650.21 6.449,52.52"
           id="path36-2" /><path
           style="fill:none;stroke:#000000"
           d="m 396.925,1631.46 52.519,-6.45"
           id="path37-6" /><path
           style="fill:none;stroke:#000000"
           d="m 449.444,1625.01 -6.448,-52.52"
           id="path38-1" /><path
           style="fill:none;stroke:#000000"
           d="m 442.996,1572.49 -52.519,6.45"
           id="path39-7" /><path
           style="fill:none;stroke:#000000"
           d="m 390.477,1578.94 6.448,52.52"
           id="path40-6" /><path
           style="fill:none;stroke:#000000"
           d="m 491.14,1793.13 52.841,-2.77"
           id="path41-5" /><path
           style="fill:none;stroke:#000000"
           d="m 543.981,1790.36 -2.77,-52.84"
           id="path42-0" /><path
           style="fill:none;stroke:#000000"
           d="m 541.211,1737.52 -52.84,2.77"
           id="path43-4" /><path
           style="fill:none;stroke:#000000"
           d="m 488.371,1740.29 2.769,52.84"
           id="path44-51" /><path
           style="fill:none;stroke:#000000"
           d="m 487.382,1721.41 52.84,-2.76"
           id="path45-2" /><path
           style="fill:none;stroke:#000000"
           d="m 540.222,1718.65 -2.769,-52.85"
           id="path46-3" /><path
           style="fill:none;stroke:#000000"
           d="m 537.453,1665.8 -52.841,2.77"
           id="path47-7" /><path
           style="fill:none;stroke:#000000"
           d="m 484.612,1668.57 2.77,52.84"
           id="path48-2" /><path
           style="fill:none;stroke:#000000"
           d="m 483.623,1649.7 52.841,-2.77"
           id="path49-41" /><path
           style="fill:none;stroke:#000000"
           d="m 536.464,1646.93 -2.769,-52.84"
           id="path50-8" /><path
           style="fill:none;stroke:#000000"
           d="m 533.695,1594.09 -52.841,2.77"
           id="path51-2" /><path
           style="fill:none;stroke:#000000"
           d="m 480.854,1596.86 2.769,52.84"
           id="path52-6" /><path
           style="fill:none;stroke:#000000"
           d="m 563.565,1802.96 52.84,-2.77"
           id="path53-0" /><path
           style="fill:none;stroke:#000000"
           d="m 616.405,1800.19 -2.769,-52.84"
           id="path54-39" /><path
           style="fill:none;stroke:#000000"
           d="m 613.636,1747.35 -52.841,2.77"
           id="path55-4" /><path
           style="fill:none;stroke:#000000"
           d="m 560.795,1750.12 2.77,52.84"
           id="path56-9" /><path
           style="fill:none;stroke:#000000"
           d="m 559.806,1731.24 52.841,-2.77"
           id="path57-6" /><path
           style="fill:none;stroke:#000000"
           d="m 612.647,1728.47 -2.769,-52.84"
           id="path58-5" /><path
           style="fill:none;stroke:#000000"
           d="m 609.878,1675.63 -52.841,2.77"
           id="path59-1" /><path
           style="fill:none;stroke:#000000"
           d="m 557.037,1678.4 2.769,52.84"
           id="path60-3" /><path
           style="fill:none;stroke:#000000"
           d="m 556.048,1659.53 52.841,-2.77"
           id="path61-2" /><path
           style="fill:none;stroke:#000000"
           d="m 608.889,1656.76 -2.769,-52.84"
           id="path62-6" /><path
           style="fill:none;stroke:#000000"
           d="m 606.12,1603.92 -52.841,2.77"
           id="path63-9" /><path
           style="fill:none;stroke:#000000"
           d="m 553.279,1606.69 2.769,52.84"
           id="path64-0" /><path
           style="fill:none;stroke:#000000"
           d="m 516.022,1874.84 52.399,7.37"
           id="path65-03" /><path
           style="fill:none;stroke:#000000"
           d="m 568.421,1882.21 7.364,-52.4"
           id="path66-9" /><path
           style="fill:none;stroke:#000000"
           d="m 575.785,1829.81 -52.398,-7.36"
           id="path67-5" /><path
           style="fill:none;stroke:#000000"
           d="m 523.387,1822.45 -7.365,52.39"
           id="path68-3" /><path
           style="fill:none;stroke:#000000"
           d="m 589.116,1887.03 50.323,16.36"
           id="path69-1" /><path
           style="fill:none;stroke:#000000"
           d="m 639.439,1903.39 16.351,-50.33"
           id="path70-1" /><path
           style="fill:none;stroke:#000000"
           d="m 655.79,1853.06 -50.323,-16.35"
           id="path71-2" /><path
           style="fill:none;stroke:#000000"
           d="m 605.467,1836.71 -16.351,50.32"
           id="path72-6" /><path
           style="fill:none;stroke:#000000"
           d="m 655.783,1915.9 46.719,24.84"
           id="path73-91" /><path
           style="fill:none;stroke:#000000"
           d="m 702.502,1940.74 24.842,-46.72"
           id="path74-9" /><path
           style="fill:none;stroke:#000000"
           d="m 727.344,1894.02 -46.72,-24.84"
           id="path75-06" /><path
           style="fill:none;stroke:#000000"
           d="m 680.624,1869.18 -24.841,46.72"
           id="path76-1" /></g></g></g></svg>
