<?xml version="1.0" encoding="UTF-8" standalone="no"?>
<svg
   viewBox="0 0 138.2095 103.22626"
   width="138.2095mm"
   height="103.22626mm"
   version="1.1"
   id="svg48"
   sodipodi:docname="Inkscape.svg"
   xml:space="preserve"
   inkscape:version="1.4.2 (ebf0e940, 2025-05-08)"
   xmlns:inkscape="http://www.inkscape.org/namespaces/inkscape"
   xmlns:sodipodi="http://sodipodi.sourceforge.net/DTD/sodipodi-0.dtd"
   xmlns="http://www.w3.org/2000/svg"
   xmlns:svg="http://www.w3.org/2000/svg"><sodipodi:namedview
     id="namedview48"
     pagecolor="#ffffff"
     bordercolor="#000000"
     borderopacity="0.25"
     inkscape:showpageshadow="2"
     inkscape:pageopacity="0.0"
     inkscape:pagecheckerboard="0"
     inkscape:deskcolor="#d1d1d1"
     inkscape:zoom="1.6362965"
     inkscape:cx="398.46078"
     inkscape:cy="559.18959"
     inkscape:window-width="2560"
     inkscape:window-height="1027"
     inkscape:window-x="0"
     inkscape:window-y="25"
     inkscape:window-maximized="0"
     inkscape:current-layer="g48"
     inkscape:document-units="mm"><inkscape:page
       x="0"
       y="2.8013852e-23"
       width="138.2095"
       height="103.22626"
       id="page2"
       margin="0"
       bleed="0" /></sodipodi:namedview><desc
     id="desc1">LHS Outline.dxf - scale = 1.000000, origin = (0.000000, 0.000000), method = manual</desc><defs
     id="defs4"><inkscape:path-effect
       effect="fill_between_many"
       method="originald"
       linkedpaths="#path86,0,1"
       id="path-effect88"
       is_visible="true"
       lpeversion="0"
       join="true"
       close="true"
       autoreverse="true" /></defs><g
     inkscape:groupmode="layer"
     inkscape:label="0"
     id="g48"
     transform="translate(-34.462545,-96.71803)"><path
       inkscape:original-d="M 0,0"
       inkscape:path-effect="#path-effect88"
       d="m 169.05679,232.60113 6.57997,6.97712 c 1.17711,1.24806 1.4273,3.10774 0.62195,4.62235 l -6.07022,11.4165 c -1.0371,1.95041 -3.45909,2.6909 -5.40968,1.65378 l -14.9257,-7.92567 c -2.7007,-1.53834 -11.05945,-5.12868 -15.707,-6.44901 -6.06883,-1.81901 -18.11395,-2.60945 -18.11395,-2.60945 -1.56108,-0.21995 -2.84769,-1.33572 -3.2858,-2.84951 l -4.36409,-15.08554 c -0.55699,-1.9246 -2.45263,-3.14044 -4.43464,-2.84427 l -25.726262,3.85173 c -1.59013,0.23791 -2.883167,1.40488 -3.28245,2.96288 l -1.753378,6.83747 c -0.352621,1.37517 -1.407583,2.46036 -2.772204,2.85189 l -12.278608,3.52123 c -2.098953,0.60124 -4.292717,-0.59131 -4.928939,-2.67986 L 38.692158,189.20645 c -0.651201,-2.1376 0.575611,-4.39439 2.723872,-5.01092 l 13.392682,-3.83968 c 1.663557,-0.47707 2.831676,-1.96975 2.894795,-3.69901 l 0.187619,-5.14011 c 0.06696,-1.83227 1.371767,-3.38479 3.165716,-3.76585 l 15.252361,-3.24156 c 1.332936,-0.28401 2.429962,-1.22648 2.910956,-2.50193 l 1.160447,-3.07546 c 0.524886,-1.3924 1.778725,-2.37792 3.255018,-2.55853 l 14.897356,-1.83004 c 1.002578,-0.12287 2.01455,0.13785 2.83281,0.73004 l 5.62217,4.06924 c 0.74037,0.53581 1.64191,0.80198 2.55457,0.75411 l 50.61819,-2.65326 c 2.2061,-0.11512 4.08824,1.57956 4.20392,3.78568 l 3.60745,68.83672 c 0.0497,0.94697 0.43408,1.84545 1.0847,2.53524 z"
       id="path88"
       style="fill:#ff0000"
       transform="translate(-4.0549134,-57.795592)" /></g></svg>
