0
SECTION
2
HEADER
9
$INSUNITS
70
4
0
ENDSEC
0
SECTION
2
TABLES
0
TABLE
2
LTYPE
0
LTYPE
72
65
70
64
2
CONTINUOUS
3
______
73
0
40
0
0
ENDTAB
0
TABLE
2
LAYER
0
ENDTAB
0
ENDSEC
0
SECTION
2
ENTITIES
0
LINE
8
0
10
72.4502348
20
-198.3710113
11
57.9366901
21
-150.7257914
0
LINE
8
0
10
60.660549
20
-145.7151554
11
74.0532306
21
-141.8748657
0
LINE
8
0
10
76.9480174
20
-138.1757693
11
77.1356673
21
-133.0363555
0
LINE
8
0
10
80.3013569
20
-129.2697156
11
95.5536447
21
-126.0277417
0
LINE
8
0
10
98.4646109
20
-123.5268342
11
99.6250405
21
-120.4503362
0
LINE
8
0
10
102.8801763
20
-117.8918344
11
117.7775236
21
-116.0626701
0
LINE
8
0
10
120.6102512
20
-116.7925151
11
126.232452
21
-120.8616774
0
LINE
8
0
10
128.7870464
20
-121.6158559
11
179.4051993
21
-118.9630708
0
LINE
8
0
10
183.6090614
20
-122.7482449
11
187.2166455
21
-191.5850503
0
LINE
8
0
10
188.3012522
20
-194.1202309
11
194.8812664
21
-201.096761
0
LINE
8
0
10
195.5031453
20
-205.7191719
11
189.4330208
21
-217.1354157
0
LINE
8
0
10
184.0233441
20
-218.7893197
11
169.2710001
21
-210.9453592
0
LINE
8
0
10
168.9242106
20
-210.7817818
11
153.8778118
21
-204.5476279
0
LINE
8
0
10
152.9034073
20
-204.2819233
11
135.2765975
21
-201.8046367
0
LINE
8
0
10
131.9908666
20
-198.9552224
11
127.6267329
21
-183.8706816
0
LINE
8
0
10
123.1921296
20
-181.0264171
11
97.4658307
21
-184.8775041
0
LINE
8
0
10
94.1833545
20
-187.8399283
11
92.4299926
21
-194.6780618
0
LINE
8
0
10
89.6578859
20
-197.5296102
11
77.3791928
21
-201.0504688
0
ARC
8
0
10
61.7630986
20
-149.5602022
40
4
50
106.0000024
51
196.9416292
0
ARC
8
0
10
72.950681
20
-138.0298189
40
4
50
286.0000024
51
357.9089503
0
ARC
8
0
10
81.1330037
20
-133.182306
40
4
50
102.0000005
51
177.9089503
0
ARC
8
0
10
94.7219979
20
-122.1151513
40
4
50
282.0000005
51
339.3339367
0
ARC
8
0
10
103.3676535
20
-121.8620191
40
4
50
96.9999972
51
159.3339367
0
ARC
8
0
10
118.2650008
20
-120.0328548
40
4
50
54.1042268
51
96.9999972
0
ARC
8
0
10
128.5777024
20
-117.6213378
40
4
50
234.1042268
51
273.0000026
0
ARC
8
0
10
179.6145433
20
-122.9575889
40
4
50
3.0000026
51
93.0000026
0
ARC
8
0
10
191.2111636
20
-191.3757063
40
4
50
183.0000026
51
223.3246315
0
ARC
8
0
10
191.971355
20
-203.8412856
40
4
50
331.9999983
51
43.3246315
0
ARC
8
0
10
185.9012305
20
-215.2575293
40
4
50
241.9999983
51
331.9999983
0
ARC
8
0
10
167.3931137
20
-214.4771496
40
4
50
61.9999983
51
67.4943701
0
ARC
8
0
10
152.3467149
20
-208.2429956
40
4
50
67.4943701
51
82.0000003
0
ARC
8
0
10
135.8332899
20
-197.8435644
40
4
50
196.1357751
51
262.0000003
0
ARC
8
0
10
123.7843096
20
-184.9823397
40
4
50
16.1357751
51
98.5136486
0
ARC
8
0
10
98.0580107
20
-188.8334267
40
4
50
98.5136486
51
165.6186504
0
ARC
8
0
10
88.5553364
20
-193.6845634
40
4
50
286.0000024
51
345.6186504
0
ARC
8
0
10
76.2766432
20
-197.2054221
40
4
50
196.9416292
51
286.0000024
0
ENDSEC
0
EOF