<?xml version="1.0" encoding="UTF-8" standalone="no"?>
<svg
   version="1.1"
   width="1024"
   height="1024"
   id="svg112"
   sodipodi:docname="logo_right.svg"
   inkscape:version="1.4.2 (ebf0e940, 2025-05-08)"
   xmlns:inkscape="http://www.inkscape.org/namespaces/inkscape"
   xmlns:sodipodi="http://sodipodi.sourceforge.net/DTD/sodipodi-0.dtd"
   xmlns="http://www.w3.org/2000/svg"
   xmlns:svg="http://www.w3.org/2000/svg">
  <defs
     id="defs112" />
  <sodipodi:namedview
     id="namedview112"
     pagecolor="#ffffff"
     bordercolor="#000000"
     borderopacity="0.25"
     inkscape:showpageshadow="2"
     inkscape:pageopacity="0.0"
     inkscape:pagecheckerboard="0"
     inkscape:deskcolor="#d1d1d1"
     inkscape:zoom="0.74902344"
     inkscape:cx="512"
     inkscape:cy="378.49283"
     inkscape:window-width="1280"
     inkscape:window-height="1012"
     inkscape:window-x="1280"
     inkscape:window-y="25"
     inkscape:window-maximized="0"
     inkscape:current-layer="svg112" />
  <path
     d="m 443.81747,109.31421 c 0.99,0.99 0.99,0.99 2,2 -0.60586,0.44988 -1.21172,0.89977 -1.83594,1.36328 -7.92208,6.08173 -15.44354,12.92805 -20.60156,21.57422 -3.22209,3.85079 -6.01816,4.55837 -10.70703,6.03906 -6.53989,2.34399 -11.972,6.25079 -15.85547,12.02344 -0.59874,3.3363 -0.59874,3.3363 -0.50781,7.0496 -0.006,0.70138 -0.0126,1.40276 -0.0191,2.12539 -0.0163,2.35613 -0.004,4.71125 0.008,7.0674 -0.006,1.70374 -0.0135,3.40747 -0.0227,5.1112 -0.0203,4.68624 -0.0157,9.37218 -0.007,14.05845 0.005,5.0518 -0.0131,10.10353 -0.0284,15.1553 -0.0233,8.75403 -0.0321,17.50797 -0.0309,26.26203 0.002,12.65693 -0.0186,25.31375 -0.0443,37.97066 -0.0411,20.53418 -0.0644,41.06834 -0.0765,61.60256 -0.0118,19.94891 -0.032,39.89779 -0.0635,59.84668 -0.002,1.22933 -0.004,2.45866 -0.006,3.72524 -0.01,6.16708 -0.0197,12.33417 -0.0297,18.50125 -0.0829,51.17473 -0.13682,102.34946 -0.17195,153.52424 0.67483,-0.005 1.34967,-0.0103 2.04495,-0.0157 0.89154,-0.004 1.78308,-0.008 2.70163,-0.0122 0.88109,-0.005 1.76217,-0.0103 2.66996,-0.0157 14.82664,0.24958 27.70109,5.50462 38.39987,15.75833 12.48889,13.06977 14.76119,25.38313 14.51953,42.91016 -0.60191,16.95284 -9.26488,30.28272 -21.3086,41.78125 -11.76967,10.08396 -25.73647,15.9623 -40.02734,21.59375 1.60782,11.31819 4.80634,20.7127 13,29 8.42713,6.31004 17.42264,9.22311 27.73047,10.5 1.36842,0.18273 1.36842,0.18273 2.76448,0.36914 2.89642,0.3859 5.79423,0.75947 8.69255,1.13086 42.32595,5.47383 42.32595,5.47383 53.8125,20 1.02542,1.65115 2.03104,3.3151 3,5 0.38065,-11.39137 -0.27602,-21.8968 -3,-33 -0.17161,-0.70157 -0.34321,-1.40314 -0.52002,-2.12598 -3.25024,-12.86737 -7.81238,-25.09048 -16.41357,-35.42089 -1.06641,-1.45313 -1.06641,-1.45313 -1.06641,-3.45313 19.84776,5.78288 33.2431,26.78672 42.6875,43.9375 1.45484,2.67895 2.88894,5.3667 4.3125,8.0625 0.86693,-30.34256 -15.67775,-63.55087 -34.82031,-86.39844 -1.17969,-1.60156 -1.17969,-1.60156 -1.17969,-3.60156 11.59525,1.68318 21.05186,12.05186 29,20 -6.9995,-20.08587 -15.8037,-38.41483 -26.82788,-56.58569 -2.05244,-3.39546 -3.83506,-6.65608 -5.17212,-10.41431 25.6439,10.82608 45.82907,49.09618 56,73 0.64939,-33.33544 0.72113,-78.16486 -20.67578,-106.19531 -1.32422,-1.80469 -1.32422,-1.80469 -1.32422,-3.80469 14.05495,4.13748 27.84035,15.97666 34.97705,28.74854 4.21415,7.80015 8.01797,15.56323 10.02295,24.25146 0.95603,-27.65408 -5.01462,-54.86644 -22.53125,-76.86328 -1.46875,-2.13672 -1.46875,-2.13672 -1.46875,-5.13672 17.94128,5.93289 28.487,15.79416 37.1875,32.4375 5.28986,10.58494 7.96565,22.13625 10.8125,33.5625 1.98578,-17.1486 1.43015,-34.09817 -0.8125,-51.1875 -0.16524,-1.26288 -0.33048,-2.52576 -0.50073,-3.8269 -1.72573,-12.36107 -4.34188,-24.39409 -7.87427,-36.3606 -0.27264,-0.93844 -0.54527,-1.87687 -0.82617,-2.84375 -0.65775,-2.26173 -1.31983,-4.52208 -1.98633,-6.78125 0.66,0 1.32,0 2,0 1.62373,1.96443 3.10213,3.91775 4.5625,6 0.444,0.63156 0.888,1.26312 1.34546,1.91382 9.32127,13.4972 15.90604,27.93389 22.09204,43.08618 5.38518,-16.15555 -0.91665,-40.38684 -6,-56 -0.20464,-0.6289 -0.40928,-1.2578 -0.62012,-1.90576 -3.45087,-10.38099 -8.17821,-19.87129 -13.46777,-29.42822 -1.02098,-1.86488 -1.98506,-3.75274 -2.91211,-5.66602 12.06206,3.42333 22.6597,19.10079 28.67529,29.55225 5.60667,10.35983 10.45888,21.1314 15.42237,31.80908 8.43919,18.06129 19.83977,33.2218 37.44531,43.08008 0.81082,0.51433 1.62164,1.02867 2.45703,1.55859 0,0.66 0,1.32 0,2 -10.90272,3.42046 -21.72121,3.24298 -32,-2 -3.21303,-2.07476 -6.28928,-4.28928 -9,-7 -0.0146,1.06098 -0.0292,2.12196 -0.0442,3.21509 -0.56527,38.14321 -1.9579,76.97447 -23.95581,109.78491 -0.33,0 -0.66,0 -1,0 -0.13535,-0.70383 -0.2707,-1.40766 -0.41016,-2.13281 -1.90873,-8.75502 -5.36866,-16.04933 -9.58984,-23.86719 0.07,0.82283 0.14003,1.64565 0.21216,2.49341 0.72984,9.23756 0.98978,18.4298 0.97534,27.69409 -6e-4,0.72239 -0.001,1.44478 -0.002,2.18906 -0.0256,11.30877 -0.36412,22.4442 -2.18567,33.62344 -0.12891,0.80647 -0.25781,1.61294 -0.39062,2.44385 -1.9687,11.87367 -4.75496,23.50195 -9.60938,34.55615 -0.66,0.33 -1.32,0.66 -2,1 -1.40651,-5.22666 -2.31608,-10.15646 -2.8125,-15.5625 -0.76271,-7.33607 -2.11825,-14.48329 -3.6875,-21.6875 -0.21374,-0.98815 -0.42748,-1.97629 -0.6477,-2.99438 -0.99251,-4.43933 -2.08142,-8.55305 -3.8523,-12.75562 -0.0396,0.72252 -0.0793,1.44504 -0.12012,2.18945 -2.28872,40.03367 -8.71326,81.11074 -36.87988,111.81055 -1.30568,1.03585 -2.63164,2.04849 -4,3 0.165,-1.17562 0.33,-2.35125 0.5,-3.5625 1.3301,-12.33711 0.29574,-24.23606 -1.5,-36.4375 -0.13463,0.71205 -0.26925,1.42409 -0.40796,2.15772 -5.02471,26.08514 -11.8578,52.32381 -26.59204,74.84228 -0.66,0.33 -1.32,0.66 -2,1 -0.0297,-1.0277 -0.0297,-1.0277 -0.0601,-2.07617 -0.096,-3.14162 -0.20536,-6.28265 -0.31494,-9.42383 -0.0309,-1.07766 -0.0619,-2.15531 -0.0937,-3.26562 -0.22096,-6.0396 -0.80083,-11.43818 -2.53125,-17.23438 -0.19521,0.59724 -0.39042,1.19448 -0.59155,1.80982 -15.72148,47.67495 -15.72148,47.67495 -32.40845,60.19018 0,-9.24 0,-18.48 0,-28 -1.32,2.41313 -2.64,4.82625 -4,7.3125 -10.36854,18.55689 -24.87816,37.12037 -43,48.6875 -0.66,0 -1.32,0 -2,0 0,-7.59 0,-15.18 0,-23 -1.05187,1.69125 -2.10375,3.3825 -3.1875,5.125 -8.56922,12.80093 -19.78523,25.04841 -33.8125,31.875 -0.20369,-7.24031 -0.34329,-14.47988 -0.43945,-21.72241 -0.0401,-2.46089 -0.0946,-4.9216 -0.16406,-7.38184 -0.0976,-3.54775 -0.14255,-7.09298 -0.17774,-10.64184 -0.0413,-1.09099 -0.0826,-2.18197 -0.12512,-3.30602 -0.004,-6.03366 0.67177,-9.35943 4.75989,-13.9247 0.69919,-0.67108 1.39839,-1.34216 2.11877,-2.03358 7.28665,-7.14973 10.50951,-17.63888 14.02771,-26.98961 0.34418,-0.90363 0.68836,-1.80726 1.04297,-2.73828 0.66216,-1.75022 1.31178,-3.50519 1.95703,-5.26172 5.34488,5.34488 4.63498,14.87235 5.125,21.9375 0.0864,1.1608 0.17274,2.3216 0.26172,3.51758 0.21095,2.8479 0.41519,5.69611 0.61328,8.54492 11.00995,-17.60059 14.08169,-34.60373 15,-55 9.65555,6.86803 14.52487,19.76893 17,31 0.50249,3.33707 0.81293,6.63319 1,10 0.96416,-2.81062 1.92141,-5.62329 2.875,-8.4375 0.40412,-1.17466 0.40412,-1.17466 0.81641,-2.37305 3.40615,-10.09383 4.62944,-18.93507 4.55859,-29.62695 0.008,-1.16338 0.0155,-2.32676 0.0234,-3.52539 -0.0156,-6.91694 -0.59055,-13.32183 -2.27344,-20.03711 8.70863,4.21517 16.17002,12.06935 20,21 0,0.99 0,1.98 0,3 0.66,0 1.32,0 2,0 3.98979,-14.10676 4.48363,-27.39057 4,-42 -15.94987,-5.9812 -33.32981,-7.14691 -50.125,-9.125 -3.32609,-0.3961 -6.65199,-0.79371 -9.97775,-1.1926 -2.05212,-0.24567 -4.10446,-0.48952 -6.15705,-0.73126 -4.60244,-0.54682 -9.17638,-1.13101 -13.7402,-1.95114 0.0157,1.19375 0.0314,2.38751 0.0476,3.61743 0.055,4.50091 0.089,9.00179 0.11719,13.50293 0.0149,1.93462 0.0353,3.86921 0.0615,5.80371 0.45894,34.74418 0.45894,34.74418 -10.78882,47.90406 -1.4375,1.17187 -1.4375,1.17187 -3.4375,1.17187 3e-4,-1.20198 5.9e-4,-2.40396 8.9e-4,-3.64237 0.004,-15.95832 0.006,-31.91664 0.007,-47.87496 6e-5,-0.66517 1.2e-4,-1.33034 1.8e-4,-2.01567 0.003,-33.06471 -0.002,-66.12939 -0.0383,-99.19408 -7.2e-4,-0.67148 -0.001,-1.34295 -0.002,-2.03478 -0.009,-8.21298 -0.0182,-16.42595 -0.0277,-24.63893 -0.0436,-37.98705 -0.0793,-75.97406 -0.0777,-113.96113 3e-5,-0.79083 6e-5,-1.58166 9e-5,-2.39646 7e-4,-17.00326 0.004,-34.00652 0.009,-51.00978 0.003,-8.19194 0.005,-16.38389 0.006,-24.57583 1.9e-4,-0.81421 3.7e-4,-1.62842 5.7e-4,-2.4673 0.006,-26.6982 -0.0212,-53.39625 -0.0642,-80.0944 -0.0444,-27.71807 -0.0562,-55.43596 -0.0267,-83.15405 0.004,-3.90312 0.008,-7.80624 0.0115,-11.70936 7.1e-4,-0.76758 0.001,-1.53516 0.002,-2.32599 0.0104,-12.30686 -0.0135,-24.61341 -0.0505,-36.9202 -0.0363,-12.29222 -0.0366,-24.58401 5.2e-4,-36.87622 0.019,-6.64688 0.0206,-13.29295 -0.0206,-19.93981 -0.0374,-6.0761 -0.029,-12.15032 0.0164,-18.22635 0.008,-2.19976 -5.1e-4,-4.39966 -0.0277,-6.59926 -0.19012,-16.4525 -0.19012,-16.4525 3.47003,-21.15692 2.56413,-1.84229 4.87265,-3.05942 7.81076,-4.18615 1.12406,-0.6007 2.24813,-1.20141 3.40625,-1.82031 15.19088,-6.40626 32.91572,-12.43841 49.59375,-11.17969 z"
     fill="#141413"
     id="path4" />
  <path
     d="m 573.81747,99.314211 c -1.17756,1.034469 -1.17756,1.034469 -2.37891,2.089839 -6.22352,5.54116 -11.80937,11.04839 -16.62109,17.91016 0.53625,-0.0722 1.0725,-0.14437 1.625,-0.21875 13.33588,-1.57925 25.37879,-1.19275 38.375,2.21875 0,0.66 0,1.32 0,2 -2.78339,2.16887 -5.68551,4.12742 -8.59375,6.125 -0.79406,0.61875 -1.58812,1.2375 -2.40625,1.875 0,0.66 0,1.32 0,2 0.58975,0.27973 1.17949,0.55945 1.78711,0.84766 2.90589,1.38079 5.80962,2.76604 8.71289,4.15234 1.11061,0.52964 2.22122,1.05929 3.36548,1.60498 6.3764,3.05755 12.71268,6.17684 19.00561,9.40283 16.3835,8.38509 32.71318,15.9255 50.12891,21.99219 1.08024,0.37673 2.16047,0.75346 3.27344,1.1416 11.65489,4.0278 23.3912,7.77515 35.18164,11.38379 20.50751,6.27996 41.43503,13.07754 58.54492,26.47461 0.68191,0.5066 1.36383,1.0132 2.06641,1.53516 14.37332,11.44803 22.54978,30.6183 24.93359,48.46484 1.70608,19.14515 -1.71461,38.64617 -7,57 -0.24234,0.84756 -0.48469,1.69512 -0.73437,2.56836 -4.84827,16.79069 -10.55658,33.22883 -17.06299,49.44775 -6.73746,16.90833 -10.10612,33.3749 -12.32813,51.39771 -2.19516,17.32543 -7.05103,31.08899 -20.87451,42.58618 -3.20661,2.08585 -6.43635,3.62105 -10,5 -0.81855,0.3184 -1.63711,0.6368 -2.48047,0.96484 -15.78566,5.18229 -30.86988,1.74236 -45.51953,-5.08984 -9.76075,-5.06557 -18.54114,-11.77681 -26,-19.875 -0.21045,6.42208 0.35912,11.87942 2.0625,18.0625 0.22406,0.82363 0.44811,1.64726 0.67896,2.49585 5.35645,18.87572 15.13168,37.06289 27.25854,52.44165 -2.87609,1.43805 -4.27912,0.53077 -7.3125,-0.4375 -17.4953,-6.11812 -31.26117,-18.26575 -39.4375,-34.8125 -4.99101,-11.59097 -6.47519,-24.29265 -6.06641,-36.80078 0.51909,-16.6942 0.62632,-30.21261 -7.00732,-45.41943 -6.34368,-13.64327 -10.13723,-28.89071 -13.96143,-43.39698 -0.16806,-0.6336 -0.33612,-1.2672 -0.50927,-1.92 -2.66463,-10.04992 -5.19793,-20.12972 -7.67041,-30.22843 -0.33064,-1.3478 -0.6613,-2.69558 -0.99198,-4.04337 -1.32996,-5.42615 -2.65928,-10.8524 -3.96774,-16.28378 -10.2486,-42.48595 -24.56391,-86.83676 -56.07544,-118.65723 -0.66,-0.33 -1.32,-0.66 -2,-1 0.33,-0.66 0.66,-1.32 1,-2 22.38512,5.63693 38.75649,15.87775 51,36 18.23715,31.30458 28.12027,66.17885 37.21191,101.00977 1.26487,4.79927 2.59229,9.58112 3.91309,14.36523 1.41066,5.11135 2.80004,10.21923 4.00781,15.38281 7.71299,32.93167 18.53699,72.42465 48.42969,92.11719 10.572,6.34919 20.74985,10.37102 33.23438,7.47656 6.01355,-2.13207 9.84882,-4.93111 13.20312,-10.35156 3.8636,-8.29109 5.04321,-16.73633 6.0625,-25.75 1.79654,-15.28233 4.36536,-29.66907 9.5625,-44.1875 0.44313,-1.26238 0.88558,-2.525 1.32739,-3.78784 2.43384,-6.92139 4.98386,-13.795 7.60889,-20.64624 11.47469,-29.96405 25.75011,-69.9586 11.82153,-101.41358 -6.11859,-12.98234 -13.57141,-19.90326 -26.72656,-25.61718 -0.69728,-0.30328 -1.39456,-0.60656 -2.11298,-0.91902 -6.74906,-2.86976 -13.63306,-5.11327 -20.65112,-7.22142 -3.79144,-1.1411 -7.57133,-2.31964 -11.35309,-3.49238 -0.78138,-0.24151 -1.56276,-0.48303 -2.36783,-0.73187 -31.44728,-9.73803 -61.80813,-20.14498 -89.92123,-37.60797 -17.05777,-10.5482 -34.09636,-18.59461 -53.25,-24.625 0.33,-0.99 0.66,-1.98 1,-3 -3.16665,-0.0294 -6.33326,-0.0469 -9.5,-0.0625 -1.33031,-0.0126 -1.33031,-0.0126 -2.6875,-0.0254 -5.37073,-0.0197 -10.49884,0.29953 -15.8125,1.08789 0.33,-1.65 0.66,-3.3 1,-5 -0.77525,0.36968 -0.77525,0.36968 -1.56616,0.74683 -17.13793,8.10821 -32.89887,13.21775 -51.70606,15.82275 -5.9993,0.85487 -11.11112,2.17356 -16.72778,4.43042 -0.99,0 -1.98,0 -3,0 -0.66,-2.97 -1.32,-5.94 -2,-9 -12.24987,6.77596 -23.03818,15.67377 -31.9375,26.5 -0.68062,0.825 -1.36125,1.65 -2.0625,2.5 -0.33,0 -0.66,0 -1,0 -0.58608,-13.87067 6.64041,-27.62321 15.1875,-38.1875 10.62241,-11.35094 28.66895,-23.03187 44.64063,-23.98047 2.40117,-0.0168 4.77515,0.0303 7.17187,0.16797 -1.64168,5.02394 -4.60127,8.98302 -7.625,13.25 -1.01501,1.44131 -2.02814,2.88395 -3.03906,4.32813 -0.44811,0.63325 -0.89622,1.2665 -1.35791,1.91894 -1.06893,1.34377 -1.06893,1.34377 -0.97803,2.50293 14.38445,-0.0677 27.04112,-7.77101 39,-15 45.1936,-27.2688 45.1936,-27.2688 61,-21.999999 z"
     fill="#151514"
     id="path5" />
  <path
     d="m 541.81747,341.31421 c 0.69867,0.47051 1.39734,0.94102 2.11719,1.42578 1.6674,1.13504 3.28151,2.34769 4.88281,3.57422 0,0.66 0,1.32 0,2 -0.74459,-0.12117 -1.48919,-0.24234 -2.25635,-0.36719 -26.97132,-5.53397 -26.97132,-5.53397 -52.38818,2.08594 -4.7191,3.34122 -4.7191,3.34122 -7.35547,8.28125 0.55688,-0.16008 1.11375,-0.32017 1.6875,-0.48511 12.68189,-2.8237 28.61208,-1.78829 39.74219,4.95777 14.31714,10.19554 23.15047,28.56585 29.57031,44.52734 0,0.66 0,1.32 0,2 -7.35731,-0.56595 -13.29333,-4.58443 -19,-9 -0.4125,1.12277 -0.825,2.24555 -1.25,3.40234 -4.60146,12.0959 -9.69094,21.60424 -21.75,27.59766 -0.6832,0.36609 -1.36641,0.73219 -2.07031,1.10938 -4.50931,1.37083 -8.93104,1.21881 -13.61719,1.20312 -0.94295,0.0161 -1.8859,0.0322 -2.85742,0.0488 -8.9496,0.006 -16.60362,-2.02236 -24.45508,-6.36133 -1.57781,1.17563 -1.57781,1.17563 -3.1875,2.375 -4.32477,3.07791 -7.40656,4.625 -12.8125,4.625 0.38665,-4.3841 0.83513,-8.67688 1.9375,-12.94531 2.96851,-11.52955 3.5807,-22.82106 3.64649,-34.67627 0.19299,-16.32691 2.93779,-33.45361 14.61523,-45.85498 19.89862,-16.83398 44.57096,-14.04263 64.80078,0.47656 z"
     fill="#141514"
     id="path7" />
  <path
     d="m 548.12948,258.2146 c 4.15747,2.70831 7.97622,5.81579 11.68799,9.09961 -2.74976,0.77962 -5.14955,1.11177 -8.00391,1.0625 -1.11085,-0.0116 -1.11085,-0.0116 -2.24414,-0.0234 -0.76377,-0.0129 -1.52754,-0.0258 -2.31445,-0.0391 -5.79637,-0.17363 -5.79637,-0.17363 -11.4375,1 1.55848,0.72703 1.55848,0.72703 3.14844,1.46875 8.47543,4.04033 15.76794,8.2786 22.85156,14.53125 1.03125,0.78375 2.0625,1.5675 3.125,2.375 7.6773,7.00971 12.90197,15.5803 17.875,24.625 -0.99,0.495 -0.99,0.495 -2,1 -1.72687,-1.18481 -3.45364,-2.36977 -5.17993,-3.55542 -1.47513,-1.01279 -2.95089,-2.02465 -4.42725,-3.03564 -3.85923,-2.64722 -7.6753,-5.33683 -11.45532,-8.09644 -15.90072,-11.12517 -33.54084,-18.28751 -53,-18.9375 -0.961,-0.0387 -1.92199,-0.0773 -2.91211,-0.11719 -2.34162,-0.0932 -4.68325,-0.179 -7.02539,-0.25781 2.46708,-4.66821 4.65355,-8.00371 8.75,-11.4375 1.19883,-1.019 1.19883,-1.019 2.42188,-2.05859 0.60328,-0.49629 1.20656,-0.99258 1.82812,-1.50391 -2.23707,-2.23707 -6.7118,-1.37125 -9.72143,-1.38281 -12.22461,0.27506 -21.33214,5.42066 -30.27857,13.38281 -0.99,0.66 -1.98,1.32 -3,2 2.20852,-9.32485 9.57356,-18.15152 17,-24 20.63157,-12.18776 44.53937,-8.19115 64.31201,3.90039 z"
     fill="#161615"
     id="path9" />
  <path
     d="m 459.81747,517.31421 c 18.52309,2.62715 37.31833,25.58041 48.146,39.74439 1.29952,1.74151 2.57958,3.49567 3.854,5.25561 0.42088,0.57122 0.84176,1.14243 1.27539,1.73096 10.1625,13.92074 17.3331,29.41914 22.84961,45.70654 0.29544,0.86964 0.59087,1.73927 0.89526,2.63526 1.42939,4.44126 2.33324,8.20108 1.97974,12.92724 -4.92067,-3.44263 -8.0358,-7.75109 -11.5,-12.5625 -0.61674,-0.84788 -1.23347,-1.69576 -1.8689,-2.56933 -7.22804,-9.99 -14.14036,-20.18985 -21.02075,-30.4209 -13.05429,-19.41103 -26.3457,-38.51123 -40.71972,-56.97852 -1.36022,-1.77615 -2.64967,-3.60731 -3.89063,-5.46875 z"
     fill="#151515"
     id="path13" />
  <path
     d="m 417.81747,435.31421 c 11.6382,4.62655 20.99763,11.36598 30,20 0.71543,0.65227 1.43086,1.30453 2.16797,1.97656 6.96945,6.57592 12.49439,14.24306 18.21973,21.88526 11.54306,15.74467 11.54306,15.74467 24.6123,30.13818 -25.01869,-6.47035 -44.5903,-29.86288 -59,-50 -1.41596,-1.93802 -2.83254,-3.87558 -4.25,-5.8125 -0.92039,-1.27617 -0.92039,-1.27617 -1.85937,-2.57812 -1.37277,-1.89465 -2.76015,-3.77874 -4.15625,-5.65625 -1.10602,-1.49274 -1.10602,-1.49274 -2.23438,-3.01563 -0.67031,-0.89848 -1.34062,-1.79695 -2.03125,-2.72266 -1.46875,-2.21484 -1.46875,-2.21484 -1.46875,-4.21484 z"
     fill="#151515"
     id="path15" />
  <path
     d="m 489.81747,216.31421 c -3.5293,7.79773 -9.73687,14.74057 -15.5,21 -4.42163,4.81806 -8.33935,9.89946 -12.18115,15.18799 -1.4896,2.04661 -2.99241,4.08324 -4.49463,6.1206 -6.36817,8.68001 -12.33993,17.42128 -17.82422,26.69141 -1.63135,2.69439 -3.28859,5.3551 -5,8 -0.33,0 -0.66,0 -1,0 0.81227,-24.08372 10.32141,-43.40029 27.52734,-59.87891 6.91117,-6.37132 18.78522,-17.12109 28.47266,-17.12109 z"
     fill="#161615"
     id="path17" />
  <path
     d="m 469.81747,181.31421 c -8.28303,18.35345 -27.39553,33.57266 -41.45581,47.47193 -2.19015,2.16729 -4.36726,4.34751 -6.54419,6.52807 -2.66667,2.66667 -5.33333,5.33333 -8,8 -2.1461,-4.2922 0.96282,-10.55583 2.34229,-15.03564 3.0884,-9.22394 8.24208,-16.75289 14.65771,-23.96436 0.59297,-0.68707 1.18594,-1.37414 1.79688,-2.08203 8.20557,-8.88937 24.54682,-20.91797 37.20312,-20.91797 z"
     fill="#171717"
     id="path18" />
  <path
     d="m 426.81747,333.31421 c 0.66,0 1.32,0 2,0 0.0142,1.0957 0.0284,2.19141 0.043,3.32031 0.59365,23.35096 4.78644,46.42875 12.64062,68.40625 0.2811,0.78722 0.5622,1.57443 0.85181,2.3855 0.54725,1.51573 1.10457,3.02786 1.67334,4.53565 0.65203,1.76476 1.22877,3.55698 1.79126,5.35229 -0.33,0.66 -0.66,1.32 -1,2 -14.1572,-10.97905 -21.61461,-28.0826 -24.58984,-45.44141 -1.63998,-14.2287 -0.59548,-27.92234 6.58984,-40.55859 z"
     fill="#191919"
     id="path20" />
  <path
     d="m 422.75497,601.50171 c 4.40114,2.60476 7.24013,5.57894 10.0625,9.8125 0,0.99 0,1.98 0,3 -0.83809,-0.0471 -0.83809,-0.0471 -1.69311,-0.0952 -13.7467,-1.18032 -13.7467,-1.18032 -25.7483,4.34521 -5.8852,6.60795 -6.57196,13.11704 -7.55859,21.75 -5.293,-7.9395 -5.26722,-19.76186 -4,-29 1.76607,-3.51687 3.86002,-5.6691 7,-8 0.88688,-0.66 1.77375,-1.32 2.6875,-2 6.13624,-1.85245 13.18159,-2.14139 19.25,0.1875 z"
     fill="#dadbda"
     id="path22"
     style="fill:#ffffff" />
  <path
     d="m 506.81747,381.31421 c 2.94919,1.69899 3.35806,2.77273 5,6 0.38257,4.16574 -0.013,7.64293 -2.5,11.0625 -3.8883,1.45811 -7.41297,1.68655 -11.5,0.9375 -3.0625,-1.9375 -3.0625,-1.9375 -5,-5 -0.85359,-4.28319 -0.70006,-7.69534 1.375,-11.5625 4.14595,-2.2704 8.02519,-2.39456 12.625,-1.4375 z"
     fill="#dddddd"
     id="path25"
     style="fill:#ffffff" />
  <path
     d="m 529.81747,762.31421 c 2.7305,2.7305 2.46135,4.62985 2.75,8.4375 0.098,1.15371 0.19594,2.30742 0.29688,3.49609 -0.0469,3.06641 -0.0469,3.06641 -2.04688,6.06641 -0.66,0 -1.32,0 -2,0 -0.95628,-4.45371 -0.90623,-7.90818 -0.0625,-12.375 0.19465,-1.05961 0.3893,-2.11922 0.58984,-3.21094 0.23397,-1.19496 0.23397,-1.19496 0.47266,-2.41406 z"
     fill="#cfcfcf"
     id="path29" />
  <path
     d="m 490.81747,593.31421 c 3.19892,1.59946 5.15354,2.82813 7.75,5.125 0.92039,0.80824 0.92039,0.80824 1.85938,1.63281 0.4589,0.40993 0.91781,0.81985 1.39062,1.24219 -0.66,0.66 -1.32,1.32 -2,2 0,0.99 0,1.98 0,3 -0.33,0.99 -0.66,1.98 -1,3 -2.64,-5.28 -5.28,-10.56 -8,-16 z"
     fill="#1b1b1a"
     id="path31" />
  <path
     d="m 498.81747,807.31421 c 0.33,0 0.66,0 1,0 1.32388,6.43029 2.24794,12.42948 2,19 -0.66,0 -1.32,0 -2,0 0,-3.63 0,-7.26 0,-11 -0.66,0 -1.32,0 -2,0 -0.33,1.32 -0.66,2.64 -1,4 -1.15957,-3.47871 -0.77457,-4.3422 0.4375,-7.6875 0.43119,-1.21236 0.43119,-1.21236 0.87109,-2.44922 0.22817,-0.61488 0.45633,-1.22976 0.69141,-1.86328 z"
     fill="#d3d3d3"
     id="path33" />
  <path
     d="m 581.81747,492.31421 c 0.66,0 1.32,0 2,0 1.72656,1.96875 1.72656,1.96875 3.625,4.5 0.63164,0.83531 1.26328,1.67063 1.91406,2.53125 0.48211,0.64969 0.96422,1.29938 1.46094,1.96875 -1.65,1.32 -3.3,2.64 -5,4 -1.32,-4.29 -2.64,-8.58 -4,-13 z"
     fill="#1d1d1d"
     id="path36" />
  <path
     d="m 592.81747,575.31421 c 0.33,0 0.66,0 1,0 0.22155,2.93705 0.42774,5.8738 0.625,8.8125 0.0645,0.83338 0.12891,1.66676 0.19531,2.52539 0.0516,0.80244 0.10313,1.60488 0.15625,2.43164 0.0524,0.73839 0.10474,1.47678 0.15869,2.23755 -0.13525,1.99292 -0.13525,1.99292 -2.13525,4.99292 -1.50049,-7.57171 -2.6026,-13.62596 0,-21 z"
     fill="#d9d8d8"
     id="path37" />
  <path
     d="m 482.81747,678.31421 c 3.77545,1.09069 6.47044,1.90831 9,5 -0.66,1.65 -1.32,3.3 -2,5 -2.59993,-2.51028 -4.99091,-4.98637 -7,-8 0,-0.66 0,-1.32 0,-2 z"
     fill="#141413"
     id="path39" />
  <path
     d="m 512.81747,650.31421 c 3.875,1.875 3.875,1.875 5,3 0.33,-0.66 0.66,-1.32 1,-2 0.66,0 1.32,0 2,0 0.53191,1.43344 1.05015,2.87195 1.5625,4.3125 0.29004,0.80051 0.58008,1.60102 0.87891,2.42578 0.55859,2.26172 0.55859,2.26172 -0.44141,5.26172 -0.38672,-0.51949 -0.77344,-1.03898 -1.17187,-1.57422 -2.88255,-3.86004 -5.7896,-7.68605 -8.82813,-11.42578 z"
     fill="#cecece"
     id="path40" />
  <path
     d="m 434.81747,280.31421 c 0.33,0.66 0.66,1.32 1,2 0.66,0 1.32,0 2,0 0,0.66 0,1.32 0,2 0.66,0.33 1.32,0.66 2,1 -0.80815,1.33598 -1.62163,2.66873 -2.4375,4 -0.67869,1.11375 -0.67869,1.11375 -1.37109,2.25 -0.39317,0.5775 -0.78633,1.155 -1.19141,1.75 -0.33,0 -0.66,0 -1,0 0.33,-4.29 0.66,-8.58 1,-13 z"
     fill="#282928"
     id="path41" />
  <path
     d="m 547.62997,267.25171 c 1.18239,0.007 1.18239,0.007 2.38867,0.0137 1.93298,0.0117 3.86591,0.0297 5.79883,0.0488 0,0.33 0,0.66 0,1 -0.79664,0.049 -1.59328,0.098 -2.41406,0.14844 -6.6609,0.43278 -6.6609,0.43278 -13.08594,2.10156 -1.2375,0.37125 -1.2375,0.37125 -2.5,0.75 -2.375,-1.375 -2.375,-1.375 -4,-3 4.62459,-1.177 9.07867,-1.11408 13.8125,-1.0625 z"
     fill="#c7c7c6"
     id="path44" />
  <path
     d="m 493.81747,262.31421 c 2.4378,-0.054 4.8744,-0.0937 7.3125,-0.125 0.69029,-0.0168 1.38059,-0.0335 2.0918,-0.0508 3.76705,-0.0364 5.38002,0.032 8.5957,2.17578 -3.81516,1.30063 -7.27562,0.8937 -11.25,0.5625 -1.26328,-0.10183 -2.52656,-0.20367 -3.82812,-0.30859 -1.44633,-0.12569 -1.44633,-0.12569 -2.92188,-0.25391 0,-0.66 0,-1.32 0,-2 z"
     fill="#d0d0d0"
     id="path47" />
  <path
     d="m 402.81747,820.31421 c 2.76223,2.76223 2.57856,5.20707 3,9 -1.98,0.33 -3.96,0.66 -6,1 0.99,-3.3 1.98,-6.6 3,-10 z"
     fill="#202020"
     id="path48" />
  <path
     d="m 493.81747,640.31421 c 3.82097,0.53069 6.06171,1.49702 9,4 -0.99,0.33 -1.98,0.66 -3,1 -0.66,0.66 -1.32,1.32 -2,2 -4,-4.75 -4,-4.75 -4,-7 z"
     fill="#242423"
     id="path58" />
  <path
     d="m 524.81747,722.31421 c 0.99,0.33 1.98,0.66 3,1 0,0.99 0,1.98 0,3 0.66,0 1.32,0 2,0 0.33,-1.32 0.66,-2.64 1,-4 0,3.3 0,6.6 0,10 -2.74278,-3.1999 -4.63028,-6.00499 -6,-10 z"
     fill="#d2d2d1"
     id="path64" />
  <path
     d="m 588.81747,450.31421 c 3.40321,1.01177 4.75725,1.64844 6.8125,4.625 0.39188,0.78375 0.78375,1.5675 1.1875,2.375 -1.32,0.33 -2.64,0.66 -4,1 -1.32,-2.64 -2.64,-5.28 -4,-8 z"
     fill="#212121"
     id="path66" />
  <path
     d="m 439.81747,411.31421 c 2,0 2,0 3.5625,1.1875 1.76432,2.22457 2.06154,4.03038 2.4375,6.8125 -3.57104,-1.8795 -5.54744,-3.17053 -7,-7 0.33,-0.33 0.66,-0.66 1,-1 z"
     fill="#262626"
     id="path69" />
  <path
     d="m 459.81747,517.31421 c 4.40114,0.50299 6.71195,2.08773 10,5 -0.99,0 -1.98,0 -3,0 -0.66,0.66 -1.32,1.32 -2,2 -1.65,-2.31 -3.3,-4.62 -5,-7 z"
     fill="#252424"
     id="path70" />
  <path
     d="m 573.81747,99.314211 c -2.46279,2.462789 -4.70677,2.997709 -8,3.999999 0,-0.99 0,-1.98 0,-3 -1.32,-0.329999 -2.64,-0.659999 -4,-0.999999 1.4364,-0.195736 2.8742,-0.381278 4.3125,-0.5625 0.80051,-0.104414 1.60102,-0.208828 2.42578,-0.316406 2.26172,-0.121094 2.26172,-0.121094 5.26172,0.878906 z"
     fill="#2b2b2b"
     id="path72" />
  <path
     d="m 428.81747,607.31421 c 2,1.8125 2,1.8125 4,4 0,0.99 0,1.98 0,3 -2.875,0.125 -2.875,0.125 -6,0 -0.66,-0.66 -1.32,-1.32 -2,-2 1.98,0 3.96,0 6,0 -0.66,-1.65 -1.32,-3.3 -2,-5 z"
     fill="#d5d5d5"
     id="path75"
     style="fill:#ffffff" />
  <path
     d="m 416.81747,887.31421 c 0.33,0 0.66,0 1,0 0.049,0.71027 0.098,1.42055 0.14844,2.15234 0.0748,0.91911 0.14953,1.83821 0.22656,2.78516 0.0696,0.91652 0.13922,1.83305 0.21094,2.77734 0.13664,0.75411 0.27328,1.50821 0.41406,2.28516 0.66,0.33 1.32,0.66 2,1 -1.98,0.99 -1.98,0.99 -4,2 0,-4.29 0,-8.58 0,-13 z"
     fill="#20201f"
     id="path77" />
  <path
     d="m 409.81747,843.31421 c 0.66,0.66 1.32,1.32 2,2 0.99,0.33 1.98,0.66 3,1 -1.32,1.65 -2.64,3.3 -4,5 -1,-1 -1,-1 -1.0625,-4.5625 0.0206,-1.13437 0.0412,-2.26875 0.0625,-3.4375 z"
     fill="#d6d6d6"
     id="path84" />
  <path
     d="m 571.81747,685.31421 c 2.50299,2.93829 3.46931,5.17903 4,9 -1.32,-0.33 -2.64,-0.66 -4,-1 0,-2.64 0,-5.28 0,-8 z"
     fill="#c5c4c4"
     id="path86" />
  <path
     d="m 595.81747,635.31421 c 3,3 3,3 4,6 -0.99,1.32 -1.98,2.64 -3,4 -0.33,-3.3 -0.66,-6.6 -1,-10 z"
     fill="#dad9d9"
     id="path87" />
  <path
     d="m 490.81747,593.31421 c 3.36592,1.44254 5.51047,3.33265 8,6 -1.65,0.33 -3.3,0.66 -5,1 -0.99,-2.31 -1.98,-4.62 -3,-7 z"
     fill="#262625"
     id="path89" />
  <path
     d="m 490.81747,351.31421 c 0,2 0,4 0,6 -1.875,1.0625 -1.875,1.0625 -4,2 -0.66,-0.33 -1.32,-0.66 -2,-1 1.98,-2.31 3.96,-4.62 6,-7 z"
     fill="#d1d1d1"
     id="path94" />
  <path
     d="m 762.81747,307.31421 c 0.66,0.33 1.32,0.66 2,1 -0.57584,2.38564 -1.22228,4.66683 -2,7 -0.66,0 -1.32,0 -2,0 0.875,-6.875 0.875,-6.875 2,-8 z"
     fill="#202020"
     id="path102" />
  <path
     d="m 435.81747,109.31421 c 6.05469,-0.19531 6.05469,-0.19531 8,0 0.66,0.66 1.32,1.32 2,2 -0.66,0.66 -1.32,1.32 -2,2 -0.99,0 -1.98,0 -3,0 0,-0.66 0,-1.32 0,-2 -1.65,-0.33 -3.3,-0.66 -5,-1 0,-0.33 0,-0.66 0,-1 z"
     fill="#343434"
     id="path103" />
  <path
     d="m 414.81747,879.31421 c 0.33,0 0.66,0 1,0 0,2.31 0,4.62 0,7 -1.32,-0.33 -2.64,-0.66 -4,-1 1.875,-4.875 1.875,-4.875 3,-6 z"
     fill="#d4d4d4"
     id="path104" />
  <path
     d="m 482.81747,678.31421 c 1.98,0.66 3.96,1.32 6,2 0,0.66 0,1.32 0,2 -0.66,0 -1.32,0 -2,0 -0.33,0.66 -0.66,1.32 -1,2 -3,-3.75 -3,-3.75 -3,-6 z"
     fill="#242424"
     id="path106" />
  <path
     d="m 533.81747,182.31421 c 2.64,0.66 5.28,1.32 8,2 0,0.66 0,1.32 0,2 -3.71599,0.20087 -4.77208,0.15194 -8,-2 0,-0.66 0,-1.32 0,-2 z"
     fill="#20201f"
     id="path111" />
  <path
     d="m 429.81747,165.31421 c 0,3.99905 -1.72587,5.80201 -4,9 -0.8125,-1.6875 -0.8125,-1.6875 -1,-4 2.4375,-2.75 2.4375,-2.75 5,-5 z"
     fill="#cfcfcf"
     id="path112" />
</svg>
