<?xml version="1.0" encoding="UTF-8" standalone="no"?>
<svg
   viewBox="0 0 142.43884 107.46735"
   width="142.43884mm"
   height="107.46735mm"
   version="1.1"
   id="svg48"
   sodipodi:docname="Inkscape.svg"
   xml:space="preserve"
   inkscape:version="1.4.2 (ebf0e940, 2025-05-08)"
   xmlns:inkscape="http://www.inkscape.org/namespaces/inkscape"
   xmlns:sodipodi="http://sodipodi.sourceforge.net/DTD/sodipodi-0.dtd"
   xmlns="http://www.w3.org/2000/svg"
   xmlns:svg="http://www.w3.org/2000/svg"><sodipodi:namedview
     id="namedview48"
     pagecolor="#ffffff"
     bordercolor="#000000"
     borderopacity="0.25"
     inkscape:showpageshadow="2"
     inkscape:pageopacity="0.0"
     inkscape:pagecheckerboard="0"
     inkscape:deskcolor="#d1d1d1"
     inkscape:zoom="1.6362965"
     inkscape:cx="398.46078"
     inkscape:cy="559.18959"
     inkscape:window-width="2560"
     inkscape:window-height="1027"
     inkscape:window-x="0"
     inkscape:window-y="25"
     inkscape:window-maximized="0"
     inkscape:current-layer="g48"
     inkscape:document-units="mm"><inkscape:page
       x="0"
       y="0"
       width="142.43884"
       height="107.46735"
       id="page2"
       margin="0"
       bleed="0" /></sodipodi:namedview><desc
     id="desc1">LHS Outline.dxf - scale = 1.000000, origin = (0.000000, 0.000000), method = manual</desc><defs
     id="defs4" /><g
     inkscape:groupmode="layer"
     inkscape:label="0"
     id="g48"
     transform="translate(-32.37723,-94.599213)"><path
       id="path90"
       style="fill:#0000ff;stroke:#000000;stroke-width:0.264583"
       d="m 94.458984,94.748047 c -5.625121,0.74142 -11.306418,1.190693 -16.86914,2.3125 -2.425028,1.150686 -3.465959,3.835163 -4.181323,6.246783 -0.46478,1.31735 -1.98886,1.67508 -3.222965,1.79631 -5.089063,1.16205 -10.273653,1.96637 -15.255868,3.54675 -2.445894,1.27025 -3.356788,4.2459 -3.187062,6.84017 -0.111406,1.51817 0.288296,3.22032 -0.646923,4.55436 -1.898675,1.36121 -4.362901,1.31601 -6.467504,2.19791 -3.282203,0.99962 -6.742607,1.70064 -9.844996,3.26498 -2.427748,1.87142 -2.848813,5.50218 -1.554687,8.15625 4.821689,15.72526 9.498649,31.49805 14.523437,47.15625 1.565408,2.87634 5.532458,3.79854 8.390625,2.40625 4.203708,-1.29375 8.54549,-2.22187 12.601563,-3.93945 2.186464,-1.66484 2.616477,-4.54436 3.267582,-7.03174 0.507954,-1.46678 0.376176,-3.34996 1.721911,-4.37288 2.136623,-0.95081 4.553174,-0.67569 6.785696,-1.24931 6.799999,-1.00586 13.565923,-2.10433 20.39083,-2.89099 1.42265,0.3758 1.81421,1.98904 2.04702,3.24645 1.52029,4.98761 2.68594,10.10162 4.6229,14.94886 1.48763,2.16845 4.29724,2.76994 6.77148,2.75977 7.00227,0.62375 14.09388,1.49858 20.66295,4.22077 8.99122,3.43224 17.16763,8.59337 25.84291,12.69719 2.7258,1.03128 5.84853,-0.57026 7.18208,-3.03255 0.85827,-1.59766 1.59979,-3.25566 2.51582,-4.82443 1.50276,-2.80583 3.1248,-5.59226 4.10484,-8.6313 0.24783,-2.6127 -1.50429,-4.85397 -3.3125,-6.52734 -1.74105,-2.0836 -4.08524,-3.72686 -5.31867,-6.19018 -0.43311,-2.49199 -0.20902,-5.17344 -0.50307,-7.74247 -1.11512,-20.85257 -2.12341,-41.71543 -3.41459,-62.55563 -0.80746,-3.219572 -4.51396,-5.106312 -7.65625,-4.378908 -16.47302,0.857537 -32.94528,1.730826 -49.42188,2.517578 -2.0407,-0.659188 -3.4504,-2.402132 -5.259023,-3.471687 -1.517378,-1.163475 -3.33451,-2.190071 -5.315193,-2.030266 z"
       inkscape:export-filename="Outline.svg"
       inkscape:export-xdpi="96"
       inkscape:export-ydpi="96" /></g></svg>
