0
SECTION
2
HEADER
9
$INSUNITS
70
4
0
ENDSEC
0
SECTION
2
TABLES
0
TABLE
2
LTYPE
0
LTYPE
72
65
70
64
2
CONTINUOUS
3
______
73
0
40
0
0
ENDTAB
0
TABLE
2
LAYER
0
ENDTAB
0
ENDSEC
0
SECTION
2
ENTITIES
0
LINE
8
0
10
75.2006296
20
-198.6582934
11
88.6582934
21
-194.7993704
0
LINE
8
0
10
88.6582934
20
-194.7993704
11
84.7993704
21
-181.3417066
0
LINE
8
0
10
84.7993704
20
-181.3417066
11
71.3417066
21
-185.2006296
0
LINE
8
0
10
71.3417066
20
-185.2006296
11
75.2006296
21
-198.6582934
0
LINE
8
0
10
69.9635198
20
-180.3943212
11
83.4211836
21
-176.5353982
0
LINE
8
0
10
83.4211836
20
-176.5353982
11
79.5622606
21
-163.0777344
0
LINE
8
0
10
79.5622606
20
-163.0777344
11
66.1045968
21
-166.9366574
0
LINE
8
0
10
66.1045968
20
-166.9366574
11
69.9635198
21
-180.3943212
0
LINE
8
0
10
64.72641
20
-162.130349
11
78.1840738
21
-158.271426
0
LINE
8
0
10
78.1840738
20
-158.271426
11
74.3251508
21
-144.8137622
0
LINE
8
0
10
74.3251508
20
-144.8137622
11
60.867487
21
-148.6726852
0
LINE
8
0
10
60.867487
20
-148.6726852
11
64.72641
21
-162.130349
0
LINE
8
0
10
92.0384707
20
-182.9014136
11
105.7325371
21
-179.99065
0
LINE
8
0
10
105.7325371
20
-179.99065
11
102.8217735
21
-166.2965836
0
LINE
8
0
10
102.8217735
20
-166.2965836
11
89.1277071
21
-169.2073472
0
LINE
8
0
10
89.1277071
20
-169.2073472
11
92.0384707
21
-182.9014136
0
LINE
8
0
10
88.0881486
20
-164.3166092
11
101.782215
21
-161.4058456
0
LINE
8
0
10
101.782215
20
-161.4058456
11
98.8714514
21
-147.7117792
0
LINE
8
0
10
98.8714514
20
-147.7117792
11
85.177385
21
-150.6225428
0
LINE
8
0
10
85.177385
20
-150.6225428
11
88.0881486
21
-164.3166092
0
LINE
8
0
10
84.1378265
20
-145.7318048
11
97.8318929
21
-142.8210412
0
LINE
8
0
10
97.8318929
20
-142.8210412
11
94.9211293
21
-129.1269748
0
LINE
8
0
10
94.9211293
20
-129.1269748
11
81.2270629
21
-132.0377384
0
LINE
8
0
10
81.2270629
20
-132.0377384
11
84.1378265
21
-145.7318048
0
LINE
8
0
10
109.6508662
20
-172.3727877
11
123.5465124
21
-170.6666169
0
LINE
8
0
10
123.5465124
20
-170.6666169
11
121.8403416
21
-156.7709707
0
LINE
8
0
10
121.8403416
20
-156.7709707
11
107.9446954
21
-158.4771415
0
LINE
8
0
10
107.9446954
20
-158.4771415
11
109.6508662
21
-172.3727877
0
LINE
8
0
10
107.3353487
20
-153.5144108
11
121.2309949
21
-151.80824
0
LINE
8
0
10
121.2309949
20
-151.80824
11
119.5248241
21
-137.9125938
0
LINE
8
0
10
119.5248241
20
-137.9125938
11
105.6291779
21
-139.6187646
0
LINE
8
0
10
105.6291779
20
-139.6187646
11
107.3353487
21
-153.5144108
0
LINE
8
0
10
105.0198312
20
-134.6560339
11
118.9154774
21
-132.9498631
0
LINE
8
0
10
118.9154774
20
-132.9498631
11
117.2093066
21
-119.0542169
0
LINE
8
0
10
117.2093066
20
-119.0542169
11
103.3136604
21
-120.7603877
0
LINE
8
0
10
103.3136604
20
-120.7603877
11
105.0198312
21
-134.6560339
0
LINE
8
0
10
129.9474267
20
-177.4316199
11
143.9282401
21
-176.6989165
0
LINE
8
0
10
143.9282401
20
-176.6989165
11
143.1955367
21
-162.7181031
0
LINE
8
0
10
143.1955367
20
-162.7181031
11
129.2147233
21
-163.4508065
0
LINE
8
0
10
129.2147233
20
-163.4508065
11
129.9474267
21
-177.4316199
0
LINE
8
0
10
128.9530435
20
-158.4576587
11
142.9338569
21
-157.7249553
0
LINE
8
0
10
142.9338569
20
-157.7249553
11
142.2011535
21
-143.7441419
0
LINE
8
0
10
142.2011535
20
-143.7441419
11
128.2203401
21
-144.4768453
0
LINE
8
0
10
128.2203401
20
-144.4768453
11
128.9530435
21
-158.4576587
0
LINE
8
0
10
127.9586603
20
-139.4836975
11
141.9394737
21
-138.7509941
0
LINE
8
0
10
141.9394737
20
-138.7509941
11
141.2067703
21
-124.7701807
0
LINE
8
0
10
141.2067703
20
-124.7701807
11
127.2259569
21
-125.5028841
0
LINE
8
0
10
127.2259569
20
-125.5028841
11
127.9586603
21
-139.4836975
0
LINE
8
0
10
149.1097974
20
-180.032303
11
163.0906108
21
-179.2995996
0
LINE
8
0
10
163.0906108
20
-179.2995996
11
162.3579074
21
-165.3187862
0
LINE
8
0
10
162.3579074
20
-165.3187862
11
148.377094
21
-166.0514896
0
LINE
8
0
10
148.377094
20
-166.0514896
11
149.1097974
21
-180.032303
0
LINE
8
0
10
148.1154142
20
-161.0583418
11
162.0962276
21
-160.3256384
0
LINE
8
0
10
162.0962276
20
-160.3256384
11
161.3635242
21
-146.344825
0
LINE
8
0
10
161.3635242
20
-146.344825
11
147.3827108
21
-147.0775284
0
LINE
8
0
10
147.3827108
20
-147.0775284
11
148.1154142
21
-161.0583418
0
LINE
8
0
10
147.121031
20
-142.0843806
11
161.1018444
21
-141.3516772
0
LINE
8
0
10
161.1018444
20
-141.3516772
11
160.369141
21
-127.3708638
0
LINE
8
0
10
160.369141
20
-127.3708638
11
146.3883276
21
-128.1035672
0
LINE
8
0
10
146.3883276
20
-128.1035672
11
147.121031
21
-142.0843806
0
LINE
8
0
10
136.5309413
20
-199.0524233
11
150.3946943
21
-201.0008467
0
LINE
8
0
10
150.3946943
20
-201.0008467
11
152.3431177
21
-187.1370937
0
LINE
8
0
10
152.3431177
20
-187.1370937
11
138.4793647
21
-185.1886703
0
LINE
8
0
10
138.4793647
20
-185.1886703
11
136.5309413
21
-199.0524233
0
LINE
8
0
10
155.8701958
20
-202.2779429
11
169.1849871
21
-206.6041808
0
LINE
8
0
10
169.1849871
20
-206.6041808
11
173.511225
21
-193.2893895
0
LINE
8
0
10
173.511225
20
-193.2893895
11
160.1964337
21
-188.9631516
0
LINE
8
0
10
160.1964337
20
-188.9631516
11
155.8701958
21
-202.2779429
0
LINE
8
0
10
173.5091666
20
-209.9143792
11
185.8704329
21
-216.4869811
0
LINE
8
0
10
185.8704329
20
-216.4869811
11
192.4430348
21
-204.1257148
0
LINE
8
0
10
192.4430348
20
-204.1257148
11
180.0817685
21
-197.5531129
0
LINE
8
0
10
180.0817685
20
-197.5531129
11
173.5091666
21
-209.9143792
0
ENDSEC
0
EOF